# Blender v2.90.1 OBJ File: 'graveStone1.blend'
# www.blender.org
mtllib graveStone1.mtl
o Cube_Cube.001
v -1.404256 -1.000000 0.692263
v -0.965126 -0.097981 0.692263
v -1.404256 -1.000000 -1.307737
v -0.965126 -0.097981 -1.307737
v 0.595744 -1.000000 0.692263
v 0.156615 -0.097981 0.692263
v 0.595744 -1.000000 -1.307737
v 0.156615 -0.097981 -1.307737
v -0.965126 4.927508 0.692263
v -0.965126 4.927508 -1.307737
v 0.156615 4.927508 -1.307737
v 0.156615 4.927508 0.692263
v -1.404256 -1.000000 2.769815
v -0.965126 -0.097981 2.769815
v 0.156615 -0.097981 2.769815
v 0.595744 -1.000000 2.769815
v -0.965126 -0.097981 -3.111153
v -1.404256 -1.000000 -3.111153
v 0.595744 -1.000000 -3.111153
v 0.156615 -0.097981 -3.111153
vt 0.375000 0.000000
vt 0.625000 0.000000
vt 0.625000 0.250000
vt 0.375000 0.250000
vt 0.625000 0.500000
vt 0.625000 0.500000
vt 0.625000 0.250000
vt 0.375000 0.500000
vt 0.625000 0.750000
vt 0.375000 0.750000
vt 0.625000 0.750000
vt 0.375000 0.750000
vt 0.125000 0.500000
vt 0.125000 0.750000
vt 0.625000 0.250000
vt 0.625000 0.500000
vt 0.875000 0.500000
vt 0.875000 0.750000
vt 0.625000 0.750000
vt 0.625000 0.000000
vt 0.625000 1.000000
vt 0.625000 1.000000
vt 0.625000 1.000000
vt 0.375000 1.000000
vt 0.375000 0.000000
vt 0.625000 0.000000
vt 0.125000 0.750000
vt 0.375000 0.250000
vt 0.375000 0.500000
vt 0.125000 0.500000
vn -0.8991 0.4377 0.0000
vn 0.0000 1.0000 0.0000
vn 0.8991 0.4377 0.0000
vn 0.0000 -1.0000 0.0000
vn 0.0000 0.0000 -1.0000
vn 1.0000 0.0000 0.0000
vn -1.0000 0.0000 0.0000
vn 0.0000 0.0000 1.0000
usemtl Material.001
s off
f 1/1/1 2/2/1 4/3/1 3/4/1
f 4/3/2 8/5/2 20/6/2 17/7/2
f 7/8/3 8/5/3 6/9/3 5/10/3
f 5/10/3 6/9/3 15/11/3 16/12/3
f 3/13/4 7/8/4 5/10/4 1/14/4
f 8/5/5 4/3/5 10/15/5 11/16/5
f 11/16/2 10/17/2 9/18/2 12/19/2
f 6/9/6 8/5/6 11/16/6 12/19/6
f 4/3/7 2/2/7 9/20/7 10/15/7
f 2/21/8 6/9/8 12/19/8 9/22/8
f 16/12/8 15/11/8 14/23/8 13/24/8
f 2/2/1 1/1/1 13/25/1 14/26/1
f 1/14/4 5/10/4 16/12/4 13/27/4
f 6/9/2 2/21/2 14/23/2 15/11/2
f 18/28/5 17/7/5 20/6/5 19/29/5
f 3/4/1 4/3/1 17/7/1 18/28/1
f 8/5/3 7/8/3 19/29/3 20/6/3
f 7/8/4 3/13/4 18/30/4 19/29/4
