# Blender v2.90.1 OBJ File: 'wall broken wall.blend'
# www.blender.org
mtllib wall broken wall.mtl
o Cube
v 0.000000 0.000000 1.382689
v 6.570654 -1.382689 -1.382689
v 0.000000 0.000000 -1.382689
v 6.570654 -1.382689 1.382689
v -6.570654 1.382689 -1.382689
v -6.570654 -1.382689 -1.382689
v -6.570654 1.382689 1.382689
v -6.570654 -1.382689 1.382689
v 0.000000 -1.382689 -1.382689
v 0.000000 1.382689 1.382689
v 0.000000 -1.382689 1.382689
v 0.000000 1.382689 -1.382689
v 3.285327 -1.382689 1.382689
v 3.285327 -1.382689 -1.382689
v -3.285327 -1.382689 -1.382689
v -3.285327 1.382689 1.382689
v -3.285327 -1.382689 1.382689
v -3.285327 1.382689 -1.382689
v -3.285327 3.250780 1.382689
v -6.570654 3.250780 1.382689
v -6.570654 3.250780 -1.382689
v -3.285327 3.250780 -1.382689
v 0.000000 3.263598 -1.382689
v 0.000000 3.263598 1.382689
v 0.000000 3.370965 1.382689
v 0.000000 3.370965 -1.382689
v 0.000000 4.946616 -1.382689
v 0.000000 4.946616 1.382689
v 0.000000 4.924960 1.382689
v 0.000000 4.924960 -1.382689
v 4.934452 1.382689 -1.038377
v 6.570654 1.038377 -1.382689
v 4.934452 1.382689 1.038377
v 6.570654 1.038377 1.382689
v 3.285327 1.382689 -1.382689
v 4.921529 1.382689 -1.038377
v 4.921529 1.382689 1.038377
v 3.285327 1.382689 1.382689
v -3.285327 0.000000 -1.382689
v -3.285327 0.000000 1.382689
v 3.285327 0.000000 -1.382689
v 3.285327 0.000000 1.382689
v -9.160390 -1.382689 -1.382689
v -9.160390 -1.382689 1.382689
v -6.570654 -0.691345 -1.382689
v 0.000000 -0.691345 -1.382689
v 0.000000 -0.691345 1.382689
v 3.285327 -0.691345 -1.382689
v -3.285327 -0.691345 -1.382689
v -3.285327 -0.691345 1.382689
v -6.570654 -0.691345 1.382689
v 6.570654 -0.777423 -1.382689
v 6.570654 -0.777423 1.382689
v 3.285327 -0.691345 1.382689
v 9.935073 -0.777423 -1.382689
v 9.935073 -0.777423 1.382689
v 8.269041 -0.172156 -1.025291
v 6.570654 -0.172156 -1.382689
v 8.269041 -0.172156 1.025291
v 6.570654 -0.172156 1.382689
v 8.236687 -0.172156 -1.025291
v 9.935073 -0.529555 -1.382689
v 8.236687 -0.172156 1.025291
v 9.935073 -0.529555 1.382689
v 9.897869 -1.382689 1.382689
v 9.897869 -1.382689 -1.382689
v 9.897869 -0.777423 -1.382689
v 9.897869 -0.777423 1.382689
v -7.846172 0.000000 -1.114277
v -6.570654 0.000000 -1.382689
v -7.846172 0.000000 1.114277
v -6.570654 -0.000000 1.382689
v -7.884872 0.000000 -1.114277
v -7.884872 0.000000 1.114277
v -9.933490 -0.691345 -1.220003
v -9.933490 -0.691345 1.220003
v -9.975786 -0.691345 -1.220003
v -9.975786 -0.691345 1.220003
v 10.036345 -1.353549 1.353549
v 10.036345 -1.353549 -1.353549
v 10.036345 -0.806563 -1.353549
v 10.036345 -0.806563 1.353549
v -9.160390 -0.476874 -1.174227
v -8.220051 -0.162110 -1.362138
v -9.160390 -0.476874 1.174227
v -8.220051 -0.162110 1.362138
v -9.160390 -0.482883 -1.174227
v -9.160390 -0.691345 -1.382689
v -9.160390 -0.482883 1.174227
v -9.160390 -0.691345 1.382689
v -10.748886 -1.246881 -1.246881
v -10.103513 -1.382689 -1.382689
v -10.748886 -1.246881 1.246881
v -10.103513 -1.382689 1.382689
v -10.748886 -0.989840 -1.246881
v -10.135275 -0.785854 -1.368762
v -10.748886 -0.989840 1.246881
v -10.135275 -0.785854 1.368762
v 10.331912 -1.079541 1.079541
v 10.106685 -1.317814 1.317814
v 10.331912 -1.079541 -1.079541
v 10.106685 -1.317814 -1.317814
v 10.331912 -1.080571 -1.079541
v 10.106685 -0.842297 -1.317814
v 10.331912 -1.080571 1.079541
v 10.106685 -0.842297 1.317814
v -3.285327 4.282549 1.382689
v -4.906014 4.623596 1.041642
v -4.949968 4.623596 1.041642
v -6.570654 4.282549 1.382689
v -4.949968 4.623596 -1.041642
v -6.570654 4.282549 -1.382689
v -4.906014 4.623596 -1.041642
v -3.285327 4.282549 -1.382689
v -3.285327 3.926967 -0.719320
v -3.285327 2.600229 -1.382689
v -3.285327 3.926967 0.719320
v -3.285327 2.600229 1.382689
v -3.285327 4.283247 -0.719320
v -0.132942 4.946616 -1.382689
v -3.285327 4.283247 0.719320
v -0.132942 4.946616 1.382689
v 3.285327 3.791385 0.962268
v 3.285327 2.950544 1.382689
v 3.285327 2.950544 -1.382689
v 3.285327 3.791385 -0.962268
v 3.285327 4.504539 0.962268
v 1.287452 4.924960 1.382689
v 3.285327 4.504539 -0.962268
v 1.287452 4.924960 -1.382689
vt 0.625000 1.000000
vt 0.625000 0.937500
vt 0.625000 0.937500
vt 0.625000 1.000000
vt 0.375000 1.000000
vt 0.437500 1.000000
vt 0.428956 1.000000
vt 0.375000 1.000000
vt 0.500000 0.024265
vt 0.500000 0.225735
vt 0.500000 0.225735
vt 0.500000 0.024265
vt 0.312500 0.500000
vt 0.375000 0.500000
vt 0.375000 0.750000
vt 0.312500 0.750000
vt 0.656127 0.531127
vt 0.656373 0.531127
vt 0.656373 0.718873
vt 0.656127 0.718873
vt 0.484436 0.532310
vt 0.484436 0.717690
vt 0.484436 0.717690
vt 0.484436 0.532310
vt 0.500000 0.312500
vt 0.625000 0.312500
vt 0.625000 0.375000
vt 0.500000 0.375000
vt 0.187500 0.500000
vt 0.250000 0.500000
vt 0.250000 0.750000
vt 0.187500 0.750000
vt 0.429718 0.500000
vt 0.484436 0.500000
vt 0.452126 0.500000
vt 0.429718 0.500000
vt 0.687500 0.711992
vt 0.687500 0.538008
vt 0.687500 0.538008
vt 0.687500 0.711992
vt 0.429718 0.750000
vt 0.484437 0.750000
vt 0.500000 0.812500
vt 0.437500 0.812500
vt 0.625000 0.437500
vt 0.500000 0.437500
vt 0.625000 0.875000
vt 0.625000 0.812500
vt 0.625000 0.812500
vt 0.625000 0.875000
vt 0.125000 0.500000
vt 0.125000 0.750000
vt 0.437500 0.250000
vt 0.500000 0.250000
vt 0.437500 0.312500
vt 0.500000 0.875000
vt 0.500000 0.937500
vt 0.750000 0.750000
vt 0.750000 0.500000
vt 0.750000 0.500000
vt 0.750000 0.750000
vt 0.625000 0.250000
vt 0.625000 0.000000
vt 0.625000 0.000000
vt 0.625000 0.250000
vt 0.812500 0.750000
vt 0.812500 0.500000
vt 0.812500 0.500000
vt 0.812500 0.750000
vt 0.625000 0.250000
vt 0.625000 0.000000
vt 0.625000 0.312500
vt 0.812500 0.750000
vt 0.812500 0.500000
vt 0.812500 0.559971
vt 0.812500 0.690029
vt 0.812500 0.690029
vt 0.812500 0.559971
vt 0.625000 0.937500
vt 0.625000 0.875000
vt 0.625000 0.875000
vt 0.625000 0.877529
vt 0.750000 0.500000
vt 0.752529 0.500000
vt 0.752529 0.750000
vt 0.750000 0.750000
vt 0.725507 0.500000
vt 0.750000 0.500000
vt 0.750000 0.750000
vt 0.725507 0.750000
vt 0.750000 0.750000
vt 0.750000 0.500000
vt 0.625000 0.437500
vt 0.625000 0.375000
vt 0.625000 0.375000
vt 0.625000 0.399492
vt 0.812500 0.500000
vt 0.812500 0.750000
vt 0.625000 0.937500
vt 0.625000 1.000000
vt 0.625000 0.312500
vt 0.625000 0.312500
vt 0.625000 0.375000
vt 0.687500 0.750000
vt 0.687500 0.500000
vt 0.687500 0.500000
vt 0.687500 0.750000
vt 0.593873 0.750000
vt 0.593873 0.500000
vt 0.625000 0.500000
vt 0.625000 0.750000
vt 0.437500 0.875000
vt 0.437500 0.937500
vt 0.500000 0.000000
vt 0.437500 0.375000
vt 0.437500 0.437500
vt 0.429718 0.750000
vt 0.452126 0.750000
vt 0.500000 1.000000
vt 0.437500 1.000000
vt 0.437500 0.014707
vt 0.437500 0.235293
vt 0.437500 0.235293
vt 0.437500 0.014707
vt 0.125000 0.750000
vt 0.125000 0.500000
vt 0.375000 1.000000
vt 0.500000 0.001812
vt 0.375000 0.937500
vt 0.437500 0.000000
vt 0.437500 0.250000
vt 0.429718 0.500000
vt 0.375000 0.500000
vt 0.375000 0.312500
vt 0.375000 0.375000
vt 0.375000 0.812500
vt 0.375000 0.437500
vt 0.375000 0.250000
vt 0.375000 0.875000
vt 0.456346 0.018846
vt 0.456889 0.018846
vt 0.456889 0.231154
vt 0.456346 0.231154
vt 0.375000 0.250000
vt 0.375000 0.250000
vt 0.428956 0.250000
vt 0.375000 0.750000
vt 0.429718 0.750000
vt 0.427084 0.502634
vt 0.377634 0.502634
vt 0.423853 0.505865
vt 0.380865 0.505865
vt 0.427084 0.747366
vt 0.377634 0.747366
vt 0.485345 0.250000
vt 0.485345 1.000000
vt 0.489484 0.248142
vt 0.489484 0.001858
vt 0.437500 0.001207
vt 0.429060 0.248793
vt 0.387278 0.012278
vt 0.410515 0.012278
vt 0.410515 0.237722
vt 0.387278 0.237722
vt 0.431711 0.248741
vt 0.431711 0.001259
vt 0.380865 0.744135
vt 0.423853 0.744135
vt 0.402406 0.527406
vt 0.402313 0.527406
vt 0.402313 0.722594
vt 0.402406 0.722594
vt 0.475735 0.000000
vt 0.485436 0.248188
vt 0.375000 0.000000
vt 0.422793 0.000000
vt 0.125000 0.750000
vt 0.125000 0.500000
vt 0.843332 0.719168
vt 0.844168 0.719168
vt 0.875000 0.750000
vt 0.844168 0.530832
vt 0.875000 0.500000
vt 0.843332 0.530832
vt 0.812500 0.750000
vt 0.812500 0.500000
vt 0.625000 0.372471
vt 0.625000 0.375000
vt 0.687500 0.500000
vt 0.687500 0.750000
vt 0.625000 0.850508
vt 0.625000 0.875000
vn 0.0000 0.0000 1.0000
vn -0.0078 0.0106 0.9999
vn 0.0000 1.0000 0.0000
vn 0.0000 -1.0000 0.0000
vn 0.0000 0.0000 -1.0000
vn 1.0000 0.0000 0.0000
vn -1.0000 0.0000 0.0000
vn 0.2059 0.9786 0.0000
vn 0.0930 0.8906 -0.4453
vn 0.0930 0.8906 0.4453
vn -0.0910 0.8907 0.4454
vn -0.0078 0.0106 -0.9999
vn 0.2059 0.0000 -0.9786
vn 0.0955 0.8903 0.4452
vn 0.0955 0.8903 -0.4452
vn 0.4529 0.0000 -0.8915
vn 0.2059 -0.9786 0.0000
vn -0.0057 0.0212 -0.9998
vn -0.0057 0.0212 0.9998
vn -0.4354 0.9002 0.0000
vn -0.0889 0.8909 0.4454
vn -0.0889 0.8909 -0.4454
vn -0.5098 0.8603 0.0000
vn 0.4529 0.0000 0.8915
vn 0.4529 0.8915 0.0000
vn 0.2059 0.0000 0.9786
vn -0.3174 0.9483 0.0000
vn -0.3561 0.6513 0.6701
vn -0.3561 0.6513 -0.6701
vn -0.0910 0.8907 -0.4454
vn -0.2059 -0.9786 0.0000
vn -0.3155 0.9489 0.0000
vn -0.2010 0.0085 -0.9796
vn -0.2010 0.0085 0.9796
vn 0.7267 -0.6869 0.0000
vn 0.7267 0.0000 -0.6869
vn 0.7267 0.0000 0.6869
vn 0.7267 0.6869 0.0000
vn 0.4529 -0.8915 0.0000
vn 0.0000 0.7071 0.7071
vn -0.2059 0.9786 0.0000
vn 0.0000 0.7071 -0.7071
vn -0.2999 0.3498 0.8875
vn -0.2999 0.3498 -0.8875
vn 0.3314 0.2464 -0.9107
vn 0.3314 0.2464 0.9107
usemtl Material
s off
f 7/1/1 16/2/1 19/3/1 20/4/1
f 44/5/2 90/6/2 98/7/2 94/8/2
f 71/9/3 69/10/3 73/11/3 74/12/3
f 14/13/4 2/14/4 4/15/4 13/16/4
f 31/17/3 36/18/3 37/19/3 33/20/3
f 57/21/4 59/22/4 63/23/4 61/24/4
f 39/25/5 18/26/5 12/27/5 3/28/5
f 15/29/4 9/30/4 11/31/4 17/32/4
f 52/33/5 58/34/5 62/35/5 55/36/5
f 123/37/6 126/38/6 129/39/6 127/40/6
f 53/41/1 60/42/1 42/43/1 54/44/1
f 3/28/5 12/27/5 35/45/5 41/46/5
f 10/47/1 38/48/1 124/49/1 25/50/1
f 9/30/4 14/13/4 13/16/4 11/31/4
f 6/51/4 15/29/4 17/32/4 8/52/4
f 45/53/5 70/54/5 39/25/5 49/55/5
f 1/56/1 10/47/1 16/2/1 40/57/1
f 10/58/6 12/59/6 23/60/6 24/61/6
f 21/62/7 20/63/7 110/64/7 112/65/7
f 16/66/6 18/67/6 22/68/6 19/69/6
f 5/70/7 7/71/7 20/63/7 21/62/7
f 18/26/5 5/70/5 21/62/5 22/72/5
f 18/67/7 16/66/7 118/73/7 116/74/7
f 115/75/7 117/76/7 121/77/7 119/78/7
f 118/79/1 24/80/1 28/81/1 122/82/1
f 27/83/3 120/84/3 122/85/3 28/86/3
f 130/87/3 30/88/3 29/89/3 128/90/3
f 12/59/7 10/58/7 25/91/7 26/92/7
f 42/43/1 38/48/1 10/47/1 1/56/1
f 125/93/5 26/94/5 30/95/5 130/96/5
f 19/69/6 22/68/6 114/97/6 107/98/6
f 20/4/1 19/3/1 107/99/1 110/100/1
f 22/72/5 21/62/5 112/65/5 114/101/5
f 24/61/6 23/60/6 27/83/6 28/86/6
f 16/2/1 10/47/1 24/80/1 118/79/1
f 12/27/5 18/26/5 116/102/5 23/103/5
f 38/104/6 35/105/6 125/106/6 124/107/6
f 35/45/5 12/27/5 26/94/5 125/93/5
f 26/92/7 25/91/7 29/89/7 30/88/7
f 31/17/8 33/20/8 34/108/8 32/109/8
f 36/18/9 31/17/9 32/110/9 35/105/9
f 33/20/10 37/19/10 38/104/10 34/111/10
f 35/105/3 38/104/3 37/19/3 36/18/3
f 58/34/6 32/109/6 34/108/6 60/42/6
f 54/44/1 42/43/1 1/56/1 47/112/1
f 47/112/1 1/56/1 40/57/1 50/113/1
f 72/114/7 7/71/7 5/70/7 70/54/7
f 46/115/5 3/28/5 41/46/5 48/116/5
f 60/42/1 53/41/1 56/117/1 64/118/1
f 49/55/5 39/25/5 3/28/5 46/115/5
f 48/116/5 41/46/5 58/34/5 52/33/5
f 50/113/1 40/57/1 72/119/1 51/120/1
f 76/121/3 75/122/3 77/123/3 78/124/3
f 6/51/4 8/52/4 44/125/4 43/126/4
f 8/127/1 51/120/1 90/6/1 44/5/1
f 71/9/11 74/12/11 86/128/11 72/114/11
f 40/57/1 16/2/1 7/1/1 72/119/1
f 17/129/1 50/113/1 51/120/1 8/127/1
f 90/130/3 88/131/3 75/122/3 76/121/3
f 2/14/5 52/33/5 67/132/5 66/133/5
f 15/134/5 49/55/5 46/115/5 9/135/5
f 4/15/1 53/41/1 54/44/1 13/136/1
f 9/135/5 46/115/5 48/116/5 14/137/5
f 6/138/5 45/53/5 49/55/5 15/134/5
f 11/139/1 47/112/1 50/113/1 17/129/1
f 13/136/1 54/44/1 47/112/1 11/139/1
f 14/137/5 48/116/5 52/33/5 2/14/5
f 89/140/7 85/141/7 83/142/7 87/143/7
f 88/131/12 43/144/12 92/145/12 96/146/12
f 60/42/1 34/108/1 38/48/1 42/43/1
f 53/41/4 52/33/4 55/36/4 56/117/4
f 55/36/6 62/35/6 64/118/6 56/117/6
f 53/41/1 4/15/1 65/147/1 68/148/1
f 81/149/13 80/150/13 66/133/13 67/132/13
f 52/33/3 53/41/3 68/148/3 67/132/3
f 58/34/3 60/42/3 59/22/3 57/21/3
f 61/24/8 63/23/8 64/118/8 62/35/8
f 60/42/14 64/118/14 63/23/14 59/22/14
f 62/35/15 58/34/15 57/21/15 61/24/15
f 41/46/5 35/45/5 32/109/5 58/34/5
f 104/151/16 102/152/16 80/150/16 81/149/16
f 67/132/8 68/148/8 82/153/8 81/149/8
f 65/147/17 66/133/17 80/150/17 79/154/17
f 4/15/4 2/14/4 66/133/4 65/147/4
f 72/114/3 70/54/3 69/10/3 71/9/3
f 70/54/18 45/53/18 88/131/18 84/155/18
f 51/120/19 72/119/19 86/156/19 90/6/19
f 74/12/20 73/11/20 84/157/20 86/158/20
f 70/54/5 5/70/5 18/26/5 39/25/5
f 98/159/21 90/130/21 76/121/21 78/124/21
f 77/123/22 75/122/22 88/131/22 96/160/22
f 93/161/7 97/162/7 95/163/7 91/164/7
f 78/124/23 77/123/23 96/165/23 98/166/23
f 45/53/5 6/138/5 43/144/5 88/131/5
f 100/167/24 106/168/24 82/153/24 79/154/24
f 106/168/25 104/151/25 81/149/25 82/153/25
f 101/169/7 103/170/7 105/171/7 99/172/7
f 68/148/26 65/147/26 79/154/26 82/153/26
f 83/142/27 85/141/27 86/158/27 84/157/27
f 89/140/7 87/143/7 88/131/7 90/130/7
f 90/130/28 86/173/28 85/141/28 89/140/28
f 84/155/29 88/131/29 87/143/29 83/142/29
f 70/54/30 84/174/30 73/11/30 69/10/30
f 92/145/31 94/175/31 93/161/31 91/164/31
f 95/163/32 97/162/32 98/166/32 96/165/32
f 91/164/33 95/163/33 96/146/33 92/145/33
f 97/162/34 93/161/34 94/175/34 98/176/34
f 43/126/4 44/125/4 94/177/4 92/178/4
f 101/169/35 99/172/35 100/167/35 102/152/35
f 103/170/36 101/169/36 102/152/36 104/151/36
f 99/172/37 105/171/37 106/168/37 100/167/37
f 105/171/38 103/170/38 104/151/38 106/168/38
f 102/152/39 100/167/39 79/154/39 80/150/39
f 108/179/40 109/180/40 110/181/40 107/98/40
f 109/180/41 111/182/41 112/183/41 110/181/41
f 111/182/42 113/184/42 114/97/42 112/183/42
f 113/184/8 108/179/8 107/98/8 114/97/8
f 113/184/3 111/182/3 109/180/3 108/179/3
f 116/74/7 118/73/7 117/76/7 115/75/7
f 119/78/41 121/77/41 122/85/41 120/84/41
f 118/73/43 122/185/43 121/77/43 117/76/43
f 120/186/44 116/74/44 115/75/44 119/78/44
f 23/103/5 116/102/5 120/187/5 27/188/5
f 126/38/6 123/37/6 124/107/6 125/106/6
f 130/87/8 128/90/8 127/40/8 129/39/8
f 129/39/45 126/38/45 125/106/45 130/189/45
f 123/37/46 127/40/46 128/190/46 124/107/46
f 25/50/1 124/49/1 128/191/1 29/192/1
