# Blender v2.90.0 OBJ File: 'house2.blend'
# www.blender.org
mtllib house2.mtl
o Plane_Plane.003
v -1.648375 0.000000 1.000000
v 1.648375 0.000000 1.000000
v -1.000000 0.000000 -1.103398
v 1.000000 0.000000 -1.103398
v 0.000000 0.000000 2.000000
v -1.648375 3.588052 1.000000
v 1.648375 3.588052 1.000000
v -1.000000 3.588052 -1.103398
v 1.000000 3.588052 -1.103398
v 0.000000 3.588052 2.000000
v -1.777228 3.588052 1.050135
v 1.777228 3.588052 1.050135
v -1.078170 3.588052 -1.217686
v 1.078170 3.588052 -1.217686
v 0.000000 3.588052 2.128305
v 0.000000 4.366475 0.358641
v -1.078170 4.366475 -1.217686
v -1.777228 4.366475 1.050135
v 1.777228 4.366475 1.050135
v 1.078170 4.366475 -1.217686
v 0.000000 4.366475 2.128305
vt 1.000000 0.000000
vt 1.000000 1.000000
vt 1.000000 1.000000
vt 1.000000 0.000000
vt 0.000000 1.000000
vt 0.000000 0.000000
vt 0.000000 0.000000
vt 0.000000 1.000000
vt 1.000000 0.000000
vt 1.000000 0.000000
vt 0.000000 0.000000
vt 0.000000 0.000000
vt 0.000000 0.000000
vt 0.000000 0.000000
vt 0.000000 0.000000
vt 0.000000 0.000000
vt 0.000000 0.000000
vt 0.000000 0.000000
vt 0.000000 0.000000
vt 0.000000 0.000000
vt 1.000000 0.000000
vt 1.000000 0.000000
vt 1.000000 1.000000
vt 1.000000 1.000000
vt 1.000000 0.000000
vt 0.000000 0.000000
vt 0.000000 1.000000
vt 0.000000 1.000000
vt 0.000000 0.000000
vt 0.000000 0.000000
vt 0.000000 0.000000
vt 0.000000 0.000000
vn 0.9556 0.0000 -0.2946
vn -0.9556 0.0000 -0.2946
vn 0.5187 0.0000 0.8550
vn -0.5187 0.0000 0.8550
vn 0.0000 0.0000 -1.0000
vn -0.9556 0.0000 0.2946
vn -0.5187 0.0000 -0.8550
vn 0.9556 0.0000 0.2946
vn 0.0000 1.0000 0.0000
vn 0.0000 -1.0000 0.0000
vn 0.0000 0.0000 1.0000
vn 0.5187 0.0000 -0.8550
usemtl None
s off
f 2/1/1 4/2/1 9/3/1 7/4/1
f 3/5/2 1/6/2 6/7/2 8/8/2
f 5/9/3 2/1/3 7/4/3 10/10/3
f 1/6/4 5/9/4 10/10/4 6/7/4
f 4/2/5 3/5/5 8/8/5 9/3/5
f 14/11/6 12/12/6 19/13/6 20/14/6
f 12/12/7 15/15/7 21/16/7 19/13/7
f 11/17/8 13/18/8 17/19/8 18/20/8
f 6/7/9 10/10/9 7/4/9 9/3/9 8/8/9
f 16/21/10 21/22/10 18/20/10
f 16/23/10 20/24/10 19/25/10
f 16/26/10 18/20/10 17/27/10
f 16/21/10 19/25/10 21/22/10
f 16/28/10 17/27/10 20/24/10
f 13/18/11 14/11/11 20/14/11 17/19/11
f 15/15/12 11/17/12 18/20/12 21/16/12
f 10/29/9 15/15/9 12/12/9 7/30/9
f 7/30/9 12/12/9 14/11/9 9/31/9
f 9/31/9 14/11/9 13/18/9 8/32/9
f 8/32/9 13/18/9 11/17/9 6/7/9
f 6/7/9 11/17/9 15/15/9 10/29/9
f 6/7/9 10/10/9 7/4/9 9/3/9 8/8/9
f 2/1/10 5/9/10 1/6/10 3/5/10 4/2/10
l 9 6
