# Blender v2.90.0 OBJ File: 'house.blend'
# www.blender.org
mtllib house.mtl
o Plane
v 1.102720 0.000000 -0.929314
v -1.685221 3.278771 0.000000
v -0.817171 3.278771 1.529372
v 1.245670 3.278771 1.031420
v -0.817171 3.278771 -1.529372
v 1.245670 3.278771 -1.031420
v -1.848591 3.278771 0.000000
v -0.817171 3.785353 1.529372
v 1.245670 3.785353 1.031420
v -0.817171 3.785353 -1.529372
v 1.245670 3.785353 -1.031420
v -1.848591 3.785353 0.000000
v -0.765987 3.785353 1.402880
v 1.126240 3.785353 0.946113
v -0.765987 3.785353 -1.402880
v 1.126240 3.785353 -0.946113
v -1.712100 3.785353 0.000000
v -0.765987 4.018456 1.402880
v 1.126240 4.018456 0.946113
v -0.765987 4.018456 -1.402880
v 1.126240 4.018456 -0.946113
v -1.712100 4.018456 0.000000
v -0.299557 4.532434 0.189901
v -0.043232 4.533089 0.128225
v -0.299557 4.532434 -0.189901
v -0.043232 4.533089 -0.128225
v -0.427368 4.531823 0.000000
v -0.246652 4.532530 0.059368
v -0.166518 4.532735 0.040087
v -0.246652 4.532530 -0.059368
v -0.166518 4.532735 -0.040087
v -0.286609 4.532340 0.000000
v -0.197484 5.074473 -0.017948
v -0.197484 5.074473 0.017948
v -0.251253 5.074296 0.000000
v -0.310165 5.061904 0.000000
v -0.145886 5.062445 0.054836
v -0.145886 5.062445 -0.054836
v -0.255506 5.062165 -0.081213
v -0.255506 5.062165 0.081213
v -0.264660 5.043990 0.103800
v -0.264660 5.043990 -0.103800
v -0.124553 5.044347 -0.070088
v -0.124553 5.044347 0.070088
v -0.334521 5.043656 0.000000
v -0.349684 5.015057 0.000000
v -0.111273 5.015842 0.079582
v -0.111273 5.015842 -0.079582
v -0.246652 4.904062 0.059368
v -0.270359 5.015436 -0.117861
v -0.270359 5.015436 0.117861
v -0.268147 4.976712 0.112403
v -0.268147 4.976712 -0.112403
v -0.116427 4.977099 -0.075897
v -0.116427 4.977099 0.075897
v -0.343799 4.976351 0.000000
v -0.313076 4.926462 0.000000
v -0.246652 4.904062 -0.059368
v -0.166518 4.904267 -0.040087
v -0.143337 4.927021 0.056659
v -1.685221 0.371532 0.000000
v -0.143337 4.927021 -0.056659
v -0.166518 4.904267 0.040087
v -0.256600 4.926732 -0.083912
v -0.256600 4.926732 0.083912
v -0.286609 4.903872 0.000000
v -0.233363 5.074381 -0.026581
v -0.233363 5.074381 0.026581
v -0.219955 5.074409 -0.001883
v -0.219955 5.074409 0.001883
v -0.225597 5.074390 0.000000
v -0.223720 5.074399 -0.002789
v -0.223720 5.074399 0.002789
v -0.219955 5.148118 0.001883
v -0.223720 5.148109 -0.002789
v -0.223720 5.148109 0.002789
v -0.219955 5.148118 -0.001883
v -0.225597 5.148100 0.000000
v -0.222590 5.153060 0.000000
v 1.102720 0.000000 0.929314
v 1.102720 3.278771 0.929314
v 1.102720 0.000000 -0.484902
v -0.495797 0.000000 0.735159
v 0.495797 0.000000 0.495797
v -0.495797 0.000000 -0.735159
v 0.495797 0.000000 -0.495797
v -0.991594 0.000000 0.000000
v -0.755907 0.000000 -1.377970
v -1.685221 0.000000 0.000000
v -0.755907 3.278771 1.377970
v -0.755907 0.000000 1.377970
v 1.102720 3.278771 -0.929314
v -0.755907 3.278771 -1.377970
v -0.265814 1.337280 1.259666
v 0.612627 1.337280 1.047618
v -0.265814 2.886923 1.259666
v 0.612627 2.886923 1.047618
v 0.634861 1.246689 -1.042251
v 0.634861 2.874778 -1.042251
v 1.102720 0.000000 0.484902
v 1.102720 2.139284 0.484902
v 1.102720 2.139284 -0.484902
v 1.020483 0.000000 0.484902
v 1.020483 0.000000 -0.484902
v 1.020483 2.139284 0.484902
v 1.020483 2.139284 -0.484902
v -0.288048 1.246689 -1.265033
v -0.288048 2.874778 -1.265033
vt 1.000000 0.000000
vt 0.000000 0.000000
vt 0.000000 0.000000
vt 1.000000 0.000000
vt 0.000000 0.000000
vt 0.000000 0.000000
vt 1.000000 1.000000
vt 1.000000 1.000000
vt 0.000000 1.000000
vt 0.000000 1.000000
vt 1.000000 0.000000
vt 1.000000 1.000000
vt 0.000000 1.000000
vt 0.000000 0.000000
vt 0.000000 0.000000
vt 1.000000 1.000000
vt 0.000000 1.000000
vt 0.000000 0.000000
vt 1.000000 0.000000
vt 0.000000 0.000000
vt 0.000000 0.000000
vt 0.000000 0.000000
vt 1.000000 0.000000
vt 1.000000 1.000000
vt 0.000000 1.000000
vt 1.000000 0.000000
vt 1.000000 1.000000
vt 0.000000 1.000000
vt 0.000000 0.000000
vt 0.000000 0.000000
vt 1.000000 1.000000
vt 0.000000 1.000000
vt 0.000000 0.000000
vt 1.000000 0.000000
vt 0.000000 0.000000
vt 0.000000 0.000000
vt 0.000000 0.000000
vt 1.000000 0.000000
vt 1.000000 1.000000
vt 0.000000 1.000000
vt 1.000000 0.000000
vt 0.000000 0.000000
vt 0.000000 0.000000
vt 1.000000 0.000000
vt 0.000000 0.000000
vt 0.000000 0.000000
vt 0.000000 1.000000
vt 1.000000 1.000000
vt 1.000000 1.000000
vt 0.000000 1.000000
vt 0.000000 1.000000
vt 1.000000 1.000000
vt 0.000000 0.000000
vt 1.000000 0.000000
vt 0.000000 0.000000
vt 0.000000 0.000000
vt 0.000000 1.000000
vt 1.000000 1.000000
vt 1.000000 0.000000
vt 0.000000 0.000000
vt 0.000000 0.000000
vt 0.000000 1.000000
vt 1.000000 1.000000
vt 1.000000 0.000000
vt 0.000000 0.000000
vt 0.000000 0.000000
vt 0.000000 0.000000
vt 1.000000 1.000000
vt 0.000000 1.000000
vt 1.000000 0.000000
vt 1.000000 1.000000
vt 0.000000 1.000000
vt 0.000000 0.000000
vt 0.000000 0.000000
vt 1.000000 0.000000
vt 1.000000 1.000000
vt 0.000000 1.000000
vt 0.000000 0.000000
vt 1.000000 0.000000
vt 0.000000 0.000000
vt 0.000000 0.000000
vt 1.000000 0.000000
vt 0.000000 1.000000
vt 1.000000 1.000000
vt 1.000000 1.000000
vt 1.000000 0.000000
vt 1.000000 0.000000
vt 1.000000 1.000000
vt 0.000000 0.000000
vt 1.000000 0.000000
vt 1.000000 1.000000
vt 0.000000 1.000000
vt 0.000000 0.000000
vt 0.000000 1.000000
vt 0.000000 0.000000
vt 0.000000 0.000000
vt 1.000000 0.000000
vt 1.000000 1.000000
vt 1.000000 1.000000
vt 0.000000 0.000000
vt 1.000000 0.000000
vt 0.000000 0.000000
vt 1.000000 0.000000
vt 0.000000 1.000000
vt 0.000000 1.000000
vt 1.000000 1.000000
vt 1.000000 1.000000
vt 1.000000 1.000000
vt 1.000000 0.000000
vt 1.000000 0.000000
vn 0.0000 1.0000 0.0000
vn -1.0000 0.0000 0.0000
vn 0.8291 0.0000 0.5591
vn -0.2347 0.0000 0.9721
vn -0.2347 0.0000 -0.9721
vn 0.8291 0.0000 -0.5591
vn 0.0000 -1.0000 0.0000
vn -0.4028 -0.9153 0.0000
vn 0.3604 -0.9007 0.2426
vn -0.1014 -0.9012 0.4214
vn -0.1014 -0.9012 -0.4214
vn 0.3604 -0.9007 -0.2426
vn 0.0026 -1.0000 -0.0003
vn 0.0026 -1.0000 0.0003
vn 0.0037 -1.0000 0.0007
vn 0.0029 -1.0000 0.0000
vn 0.0037 -1.0000 -0.0007
vn 0.8296 0.0000 -0.5584
vn 0.8296 0.0000 0.5584
vn -0.2339 0.0000 0.9723
vn -0.2339 0.0000 -0.9723
vn -0.1562 -0.7377 -0.6569
vn 0.5565 -0.7428 -0.3722
vn -0.1562 -0.7377 0.6569
vn -0.6469 -0.7626 0.0000
vn -0.2138 -0.3969 0.8926
vn 0.7599 -0.4029 0.5102
vn -0.9065 -0.4223 0.0000
vn 0.7599 -0.4029 -0.5102
vn -0.2138 -0.3969 -0.8926
vn 0.8229 0.1251 0.5542
vn -0.2325 0.1227 0.9648
vn -0.9913 0.1319 0.0000
vn 0.8229 0.1251 -0.5542
vn -0.2325 0.1227 -0.9648
vn 0.7382 0.4546 0.4983
vn -0.8809 0.4733 0.0000
vn -0.2103 0.4470 0.8694
vn 0.7382 0.4546 -0.4983
vn -0.2103 0.4470 -0.8694
vn -0.1714 0.6881 -0.7050
vn 0.5944 0.6963 -0.4023
vn -0.1714 0.6881 0.7051
vn -0.7005 0.7136 0.0000
vn 0.5944 0.6964 0.4023
vn 0.5565 -0.7428 0.3722
vn 0.2040 -0.9697 -0.1342
vn -0.0551 -0.9694 0.2391
vn -0.2270 -0.9739 0.0000
vn 0.2040 -0.9697 0.1342
vn -0.0551 -0.9694 -0.2391
vn 0.0037 -1.0000 0.0008
vn 0.0037 -1.0000 -0.0008
vn 0.7417 -0.4497 -0.4976
vn -0.2087 -0.4434 -0.8717
vn 0.7417 -0.4497 0.4977
vn -0.2087 -0.4434 0.8717
vn -0.8825 -0.4704 0.0000
vn 0.0000 0.0000 -1.0000
vn 0.0000 0.0000 1.0000
usemtl None
s off
f 81/1/1 90/2/1 3/3/1 4/4/1
f 90/2/1 2/5/1 7/6/1 3/3/1
f 92/7/1 81/1/1 4/4/1 6/8/1
f 2/5/1 93/9/1 5/10/1 7/6/1
f 93/9/1 92/7/1 6/8/1 5/10/1
f 6/8/2 4/4/2 9/11/2 11/12/2
f 7/6/3 5/10/3 10/13/3 12/14/3
f 5/10/4 6/8/4 11/12/4 10/13/4
f 4/4/5 3/3/5 8/15/5 9/11/5
f 3/3/6 7/6/6 12/14/6 8/15/6
f 10/13/7 11/12/7 16/16/7 15/17/7
f 9/11/7 8/15/7 13/18/7 14/19/7
f 8/15/7 12/14/7 17/20/7 13/18/7
f 11/12/7 9/11/7 14/19/7 16/16/7
f 12/14/7 10/13/7 15/17/7 17/20/7
f 13/18/6 17/20/6 22/21/6 18/22/6
f 16/16/2 14/19/2 19/23/2 21/24/2
f 17/20/3 15/17/3 20/25/3 22/21/3
f 15/17/4 16/16/4 21/24/4 20/25/4
f 14/19/5 13/18/5 18/22/5 19/23/5
f 21/24/8 19/23/8 24/26/8 26/27/8
f 22/21/9 20/25/9 25/28/9 27/29/9
f 20/25/10 21/24/10 26/27/10 25/28/10
f 19/23/11 18/22/11 23/30/11 24/26/11
f 18/22/12 22/21/12 27/29/12 23/30/12
f 25/28/13 26/27/13 31/31/13 30/32/13
f 24/26/14 23/30/14 28/33/14 29/34/14
f 23/30/15 27/29/15 32/35/15 28/33/15
f 26/27/16 24/26/16 29/34/16 31/31/16
f 27/29/17 25/28/17 30/32/17 32/35/17
f 28/33/18 32/35/18 66/36/18 49/37/18
f 31/31/2 29/34/2 63/38/2 59/39/2
f 32/35/19 30/32/19 58/40/19 66/36/19
f 30/32/20 31/31/20 59/39/20 58/40/20
f 29/34/21 28/33/21 49/37/21 63/38/21
f 44/41/22 41/42/22 40/43/22 37/44/22
f 41/42/23 45/45/23 36/46/23 40/43/23
f 42/47/24 43/48/24 38/49/24 39/50/24
f 43/48/25 44/41/25 37/44/25 38/49/25
f 50/51/26 48/52/26 43/48/26 42/47/26
f 46/53/27 50/51/27 42/47/27 45/45/27
f 48/52/28 47/54/28 44/41/28 43/48/28
f 51/55/29 46/53/29 45/45/29 41/42/29
f 47/54/30 51/55/30 41/42/30 44/41/30
f 56/56/31 53/57/31 50/51/31 46/53/31
f 53/57/32 54/58/32 48/52/32 50/51/32
f 54/58/33 55/59/33 47/54/33 48/52/33
f 52/60/34 56/56/34 46/53/34 51/55/34
f 55/59/35 52/60/35 51/55/35 47/54/35
f 57/61/36 64/62/36 53/57/36 56/56/36
f 62/63/37 60/64/37 55/59/37 54/58/37
f 64/62/38 62/63/38 54/58/38 53/57/38
f 65/65/39 57/61/39 56/56/39 52/60/39
f 60/64/40 65/65/40 52/60/40 55/59/40
f 63/38/41 49/37/41 65/65/41 60/64/41
f 49/37/42 66/36/42 57/61/42 65/65/42
f 58/40/43 59/39/43 62/63/43 64/62/43
f 59/39/44 63/38/44 60/64/44 62/63/44
f 66/36/45 58/40/45 64/62/45 57/61/45
f 45/45/46 42/47/46 39/50/46 36/46/46
f 40/43/47 36/46/47 35/66/47 68/67/47
f 39/50/48 38/49/48 33/68/48 67/69/48
f 38/49/49 37/44/49 34/70/49 33/68/49
f 36/46/50 39/50/50 67/69/50 35/66/50
f 37/44/51 40/43/51 68/67/51 34/70/51
f 67/69/13 33/68/13 69/71/13 72/72/13
f 68/67/52 35/66/52 71/73/52 73/74/52
f 34/70/14 68/67/14 73/74/14 70/75/14
f 35/66/53 67/69/53 72/72/53 71/73/53
f 33/68/16 34/70/16 70/75/16 69/71/16
f 72/72/20 69/71/20 77/76/20 75/77/20
f 71/73/19 72/72/19 75/77/19 78/78/19
f 69/71/2 70/75/2 74/79/2 77/76/2
f 70/75/21 73/74/21 76/80/21 74/79/21
f 73/74/18 71/73/18 78/78/18 76/80/18
f 76/80/54 78/78/54 79/81/54
f 74/79/55 76/80/55 79/82/55
f 78/78/56 75/77/56 79/81/56
f 75/77/57 77/76/57 79/83/57
f 77/76/58 74/79/58 79/84/58
f 1/85/1 80/86/1 100/87/1 82/88/1
f 83/89/1 84/90/1 86/91/1 85/92/1
f 83/89/1 85/92/1 87/93/1
f 87/93/1 85/92/1 88/94/1 89/95/1
f 85/92/1 86/91/1 1/85/1 88/94/1
f 84/90/1 83/89/1 91/96/1 80/86/1
f 83/89/1 87/93/1 89/95/1 91/96/1
f 86/91/1 84/90/1 80/86/1 1/85/1
f 89/95/3 88/94/3 93/9/3 2/5/3
f 91/96/6 89/95/6 2/5/6 90/2/6
f 80/86/2 81/1/2 101/97/2 100/87/2
f 1/85/4 92/7/4 99/98/4 98/99/4
f 80/86/5 91/96/5 94/100/5 95/101/5
f 91/96/5 90/2/5 96/102/5 94/100/5
f 81/1/5 80/86/5 95/101/5 97/103/5
f 90/2/5 81/1/5 97/103/5 96/102/5
f 92/7/4 93/9/4 108/104/4 99/98/4
f 88/94/4 1/85/4 98/99/4 107/105/4
f 93/9/4 88/94/4 107/105/4 108/104/4
f 102/106/59 82/88/59 104/107/59 106/108/59
f 92/7/2 1/85/2 82/88/2 102/106/2
f 81/1/2 92/7/2 102/106/2 101/97/2
f 104/107/2 103/109/2 105/110/2 106/108/2
f 82/88/7 100/87/7 103/109/7 104/107/7
f 100/87/60 101/97/60 105/110/60 103/109/60
f 101/97/1 102/106/1 106/108/1 105/110/1
f 99/98/4 108/104/4 107/105/4 98/99/4
f 95/101/5 94/100/5 96/102/5 97/103/5
l 89 61
