# Blender v2.90.0 OBJ File: 'roundedGrave.blend'
# www.blender.org
mtllib roundedGrave.mtl
o Cube
v 0.230633 0.015761 -1.000000
v 0.230633 0.015761 1.000000
v -0.230633 0.015761 -1.000000
v -0.230633 0.015761 1.000000
v 0.230633 1.858527 -0.609690
v 0.230633 2.015761 -0.230094
v 0.230633 2.015761 0.230094
v 0.230633 1.858527 0.609690
v -0.230633 2.015761 -0.230094
v -0.230633 1.858527 -0.609690
v -0.230633 1.858527 0.609690
v -0.230633 2.015761 0.230094
v 0.230633 1.308014 -1.000000
v 0.230633 1.581498 -0.886719
v 0.230633 1.581498 0.886719
v 0.230633 1.308014 1.000000
v -0.230633 1.581498 -0.886719
v -0.230633 1.308014 -1.000000
v -0.230633 1.308014 1.000000
v -0.230633 1.581498 0.886719
v -0.652772 0.015761 -1.000000
v -0.652772 0.015761 1.000000
v -0.652772 -0.272591 1.000000
v -0.652772 -0.272591 -1.000000
v 0.687391 0.015761 1.000000
v 0.687391 0.015761 -1.000000
v 0.687391 -0.272591 1.000000
v 0.687391 -0.272591 -1.000000
v 0.343061 0.015761 -1.367461
v 0.114850 0.015761 -1.487441
v -0.114850 0.015761 -1.487441
v -0.342516 0.015761 -1.358250
v 0.114850 -0.272591 -1.487441
v 0.343061 -0.272591 -1.367461
v -0.342516 -0.272591 -1.358250
v -0.114850 -0.272591 -1.487441
v -0.342756 0.015761 1.346253
v -0.114850 0.015761 1.471481
v 0.114850 0.015761 1.471481
v 0.343268 0.015761 1.355215
v 0.343268 -0.272591 1.355215
v 0.114850 -0.272591 1.471481
v -0.114850 -0.272591 1.471481
v -0.342756 -0.272591 1.346253
vt 0.375000 0.250000
vt 0.570717 0.235840
vt 0.536532 0.250000
vt 0.375000 0.000000
vt 0.375000 0.250000
vt 0.375000 0.000000
vt 0.375000 0.750000
vt 0.536532 0.750000
vt 0.536532 1.000000
vt 0.375000 1.000000
vt 0.625000 0.596238
vt 0.875000 0.596238
vt 0.875000 0.653762
vt 0.625000 0.653762
vt 0.125000 0.500000
vt 0.375000 0.500000
vt 0.375000 0.750000
vt 0.125000 0.750000
vt 0.605346 0.750000
vt 0.605346 1.000000
vt 0.570717 1.000000
vt 0.570717 0.750000
vt 0.570717 0.735840
vt 0.625000 0.750000
vt 0.625000 1.000000
vt 0.625000 0.250000
vt 0.625000 0.500000
vt 0.605346 0.500000
vt 0.605346 0.250000
vt 0.536532 0.500000
vt 0.375000 0.500000
vt 0.570717 0.250000
vt 0.570717 0.500000
vt 0.375000 0.750000
vt 0.375000 0.500000
vt 0.375000 0.750000
vt 0.375000 0.250000
vt 0.375000 0.000000
vt 0.375000 0.250000
vt 0.375000 0.250000
vt 0.375000 0.312753
vt 0.375000 0.437247
vt 0.375000 0.437247
vt 0.375000 0.312753
vt 0.375000 0.750000
vt 0.375000 0.734394
vt 0.375000 0.734394
vt 0.191401 0.550796
vt 0.312247 0.750000
vt 0.187753 0.750000
vt 0.375000 0.500000
vt 0.375000 0.812753
vt 0.375000 0.937247
vt 0.375000 0.937247
vt 0.375000 0.812753
vt 0.191260 0.433740
vt 0.187753 0.500000
vt 0.312247 0.500000
vt 0.375000 0.500000
vt 0.536532 0.000000
vt 0.570717 0.014160
vt 0.605346 0.048789
vt 0.605346 0.201211
vt 0.625000 0.096238
vt 0.625000 0.153762
vt 0.605346 0.701211
vt 0.570717 0.514160
vt 0.605346 0.548789
vn -1.0000 -0.0000 0.0000
vn 0.0000 1.0000 0.0000
vn 0.0000 0.0000 1.0000
vn 0.0000 0.1951 0.9808
vn 0.0000 0.9808 -0.1951
vn 0.0000 0.9808 0.1951
vn 0.0000 -1.0000 -0.0000
vn 0.0000 0.8315 0.5556
vn 0.0000 0.5556 0.8315
vn 1.0000 -0.0000 0.0000
vn 0.0000 0.8315 -0.5556
vn 0.0000 0.0000 -1.0000
vn 0.0000 0.1951 -0.9808
vn 0.0000 0.5556 -0.8315
vn -0.9341 0.0000 0.3571
vn -0.9370 0.0000 -0.3493
vn -0.6339 0.0000 -0.7734
vn -0.2552 0.0000 -0.9669
vn 0.2397 0.0000 -0.9709
vn 0.9300 0.0000 -0.3676
vn 0.9269 0.0000 0.3753
vn 0.5940 0.0000 0.8045
vn -0.6222 0.0000 0.7829
vn 0.2332 0.0000 0.9724
vn -0.2486 0.0000 0.9686
vn 0.6059 0.0000 -0.7955
usemtl Material
s 1
f 3/1/1 17/2/1 18/3/1
f 4/4/2 3/1/2 21/5/2 22/6/2
f 2/7/3 16/8/4 19/9/4 4/10/3
f 6/11/5 9/12/5 12/13/6 7/14/6
f 24/15/7 28/16/7 27/17/7 23/18/7
f 8/19/8 11/20/8 20/21/9 15/22/9
f 2/7/10 15/23/10 16/8/10
f 7/24/6 12/25/6 11/20/8 8/19/8
f 9/26/5 6/27/5 5/28/11 10/29/11
f 3/1/12 18/3/13 13/30/13 1/31/12
f 19/9/4 16/8/4 15/22/9 20/21/9
f 13/30/13 18/3/13 17/32/14 14/33/14
f 10/29/11 5/28/11 14/33/14 17/32/14
f 1/31/2 2/7/2 25/34/2 26/35/2
f 2/7/2 40/36/2 25/34/2
f 22/6/15 21/5/16 24/37/16 23/38/15
f 24/37/16 21/5/16 32/39/17 35/40/17
f 31/41/18 30/42/19 33/43/19 36/44/18
f 26/35/20 25/34/21 27/17/21 28/16/20
f 40/36/22 41/45/22 27/17/21 25/34/21
f 22/6/15 23/38/15 44/46/23 37/47/23
f 44/48/7 41/45/7 42/49/7 43/50/7
f 1/31/2 26/35/2 29/51/2
f 39/52/24 38/53/25 43/54/25 42/55/24
f 35/56/7 36/57/7 33/58/7 34/59/7
f 33/43/19 30/42/19 29/51/26 34/59/26
f 31/41/18 36/44/18 35/40/17 32/39/17
f 39/52/24 42/55/24 41/45/22 40/36/22
f 43/54/25 38/53/25 37/47/23 44/46/23
f 26/35/20 28/16/20 34/59/26 29/51/26
f 4/4/1 19/60/1 20/61/1
f 4/4/1 20/61/1 11/62/1
f 17/2/1 3/1/1 10/63/1
f 4/4/1 11/62/1 12/64/1
f 3/1/1 4/4/1 12/64/1 9/65/1
f 10/63/1 3/1/1 9/65/1
f 4/10/2 22/6/2 37/47/2
f 4/10/2 37/47/2 38/53/2
f 2/7/2 4/10/2 38/53/2 39/52/2
f 40/36/2 2/7/2 39/52/2
f 1/31/2 29/51/2 30/42/2
f 3/1/2 1/31/2 30/42/2 31/41/2
f 3/1/2 31/41/2 32/39/2
f 21/5/2 3/1/2 32/39/2
f 24/37/7 35/56/7 34/59/7 28/16/7
f 23/38/7 27/17/7 41/45/7 44/48/7
f 2/7/10 8/66/10 15/23/10
f 1/31/10 13/30/10 14/67/10
f 1/31/10 14/67/10 5/68/10
f 1/31/10 5/68/10 6/11/10
f 8/66/10 2/7/10 7/14/10
f 2/7/10 1/31/10 6/11/10 7/14/10
