# Blender v2.91.0 OBJ File: 'tree stump 1.blend'
# www.blender.org
mtllib tree stump 1.mtl
o Cylinder
v -0.000000 -0.278615 -2.746423
v -0.000000 0.277580 -2.756657
v 0.412486 -0.278605 -2.693553
v 0.412486 0.277590 -2.703787
v 0.809121 -0.278575 -2.536975
v 0.809121 0.277620 -2.547208
v 1.174662 -0.278527 -2.282705
v 1.174662 0.277668 -2.292939
v 1.495061 -0.278463 -1.940516
v 1.495061 0.277732 -1.950749
v 1.758006 -0.278385 -1.523556
v 1.758006 0.277810 -1.533790
v 1.953392 -0.278295 -1.047851
v 1.953392 0.277900 -1.058085
v 2.073709 -0.278198 -0.531682
v 2.073709 0.277997 -0.541915
v 2.114336 -0.278097 0.005117
v 2.114336 0.278097 -0.005116
v 2.073709 -0.277997 0.541916
v 2.073709 0.278198 0.531682
v 1.953392 -0.277900 1.058086
v 1.953392 0.278295 1.047853
v 1.758006 -0.277810 1.533791
v 1.758006 0.278385 1.523558
v 1.495061 -0.277732 1.950750
v 1.495061 0.278463 1.940516
v 1.174662 -0.277668 2.292940
v 1.174662 0.278527 2.282706
v 0.809121 -0.277620 2.547209
v 0.809121 0.278575 2.536976
v 0.412486 -0.277590 2.703788
v 0.412486 0.278605 2.693554
v -0.000001 -0.277580 2.756658
v -0.000001 0.278615 2.746424
v -0.412487 -0.277590 2.703788
v -0.412487 0.278605 2.693554
v -0.809122 -0.277620 2.547209
v -0.809122 0.278575 2.536975
v -1.174663 -0.277668 2.292939
v -1.174663 0.278527 2.282705
v -1.495062 -0.277732 1.950749
v -1.495062 0.278463 1.940515
v -1.758007 -0.277810 1.533790
v -1.758007 0.278385 1.523556
v -1.953393 -0.277900 1.058084
v -1.953393 0.278295 1.047851
v -2.073710 -0.277997 0.541914
v -2.073710 0.278198 0.531680
v -2.114336 -0.278097 0.005115
v -2.114336 0.278097 -0.005119
v -2.073709 -0.278198 -0.531684
v -2.073709 0.277997 -0.541918
v -1.953391 -0.278295 -1.047854
v -1.953391 0.277900 -1.058088
v -1.758005 -0.278385 -1.523559
v -1.758005 0.277810 -1.533793
v -1.495059 -0.278463 -1.940518
v -1.495059 0.277732 -1.950752
v -1.174660 -0.278527 -2.282707
v -1.174660 0.277668 -2.292941
v -0.809119 -0.278575 -2.536976
v -0.809119 0.277620 -2.547210
v -0.412483 -0.278605 -2.693554
v -0.412483 0.277590 -2.703788
v -0.000000 0.278097 -0.005116
v -0.000000 -0.278097 0.005117
vt 1.000000 0.500000
vt 1.000000 1.000000
vt 0.968750 1.000000
vt 0.968750 0.500000
vt 0.937500 1.000000
vt 0.937500 0.500000
vt 0.906250 1.000000
vt 0.906250 0.500000
vt 0.875000 1.000000
vt 0.875000 0.500000
vt 0.843750 1.000000
vt 0.843750 0.500000
vt 0.812500 1.000000
vt 0.812500 0.500000
vt 0.781250 1.000000
vt 0.781250 0.500000
vt 0.750000 1.000000
vt 0.750000 0.500000
vt 0.718750 1.000000
vt 0.718750 0.500000
vt 0.687500 1.000000
vt 0.687500 0.500000
vt 0.656250 1.000000
vt 0.656250 0.500000
vt 0.625000 1.000000
vt 0.625000 0.500000
vt 0.593750 1.000000
vt 0.593750 0.500000
vt 0.562500 1.000000
vt 0.562500 0.500000
vt 0.531250 1.000000
vt 0.531250 0.500000
vt 0.500000 1.000000
vt 0.500000 0.500000
vt 0.468750 1.000000
vt 0.468750 0.500000
vt 0.437500 1.000000
vt 0.437500 0.500000
vt 0.406250 1.000000
vt 0.406250 0.500000
vt 0.375000 1.000000
vt 0.375000 0.500000
vt 0.343750 1.000000
vt 0.343750 0.500000
vt 0.312500 1.000000
vt 0.312500 0.500000
vt 0.281250 1.000000
vt 0.281250 0.500000
vt 0.250000 1.000000
vt 0.250000 0.500000
vt 0.218750 1.000000
vt 0.218750 0.500000
vt 0.187500 1.000000
vt 0.187500 0.500000
vt 0.156250 1.000000
vt 0.156250 0.500000
vt 0.125000 1.000000
vt 0.125000 0.500000
vt 0.093750 1.000000
vt 0.093750 0.500000
vt 0.062500 1.000000
vt 0.062500 0.500000
vt 0.750000 0.490000
vt 0.796822 0.485388
vt 0.750000 0.250000
vt 0.031250 1.000000
vt 0.031250 0.500000
vt 0.000000 1.000000
vt 0.000000 0.500000
vt 0.296822 0.485388
vt 0.250000 0.490000
vt 0.250000 0.250000
vt 0.203179 0.485389
vt 0.158156 0.471731
vt 0.116663 0.449553
vt 0.080295 0.419706
vt 0.050447 0.383337
vt 0.028269 0.341844
vt 0.014612 0.296822
vt 0.010000 0.250000
vt 0.014611 0.203179
vt 0.028269 0.158156
vt 0.050447 0.116663
vt 0.080294 0.080294
vt 0.116663 0.050447
vt 0.158156 0.028269
vt 0.203178 0.014612
vt 0.250000 0.010000
vt 0.296822 0.014612
vt 0.341844 0.028269
vt 0.383337 0.050447
vt 0.419706 0.080294
vt 0.449553 0.116663
vt 0.471731 0.158156
vt 0.485388 0.203178
vt 0.490000 0.250000
vt 0.485388 0.296822
vt 0.471731 0.341844
vt 0.449553 0.383337
vt 0.419706 0.419706
vt 0.383337 0.449553
vt 0.341844 0.471731
vt 0.841844 0.471731
vt 0.883337 0.449553
vt 0.919706 0.419706
vt 0.949553 0.383337
vt 0.971731 0.341844
vt 0.985388 0.296822
vt 0.990000 0.250000
vt 0.985388 0.203178
vt 0.971731 0.158156
vt 0.949553 0.116663
vt 0.919706 0.080294
vt 0.883337 0.050447
vt 0.841844 0.028269
vt 0.796822 0.014612
vt 0.750000 0.010000
vt 0.703178 0.014612
vt 0.658156 0.028269
vt 0.616663 0.050447
vt 0.580294 0.080294
vt 0.550447 0.116663
vt 0.528269 0.158156
vt 0.514611 0.203179
vt 0.510000 0.250000
vt 0.514612 0.296822
vt 0.528269 0.341844
vt 0.550447 0.383337
vt 0.580295 0.419706
vt 0.616663 0.449553
vt 0.658156 0.471731
vt 0.703179 0.485389
vn 0.1271 -0.0182 -0.9917
vn 0.3671 -0.0171 -0.9300
vn 0.5710 -0.0151 -0.8208
vn 0.7299 -0.0126 -0.6834
vn 0.8458 -0.0098 -0.5334
vn 0.9250 -0.0070 -0.3799
vn 0.9739 -0.0042 -0.2270
vn 0.9971 -0.0014 -0.0755
vn 0.9971 0.0014 0.0755
vn 0.9739 0.0042 0.2270
vn 0.9250 0.0070 0.3799
vn 0.8458 0.0098 0.5334
vn 0.7299 0.0126 0.6834
vn 0.5710 0.0151 0.8208
vn 0.3671 0.0171 0.9300
vn 0.1271 0.0182 0.9917
vn -0.1271 0.0182 0.9917
vn -0.3671 0.0171 0.9300
vn -0.5710 0.0151 0.8208
vn -0.7299 0.0126 0.6834
vn -0.8458 0.0098 0.5334
vn -0.9250 0.0070 0.3799
vn -0.9739 0.0042 0.2270
vn -0.9971 0.0014 0.0755
vn -0.9971 -0.0014 -0.0755
vn -0.9739 -0.0042 -0.2270
vn -0.9250 -0.0070 -0.3799
vn -0.8458 -0.0098 -0.5334
vn -0.7299 -0.0126 -0.6834
vn -0.5710 -0.0151 -0.8208
vn 0.0000 -1.0000 0.0002
vn -0.3671 -0.0171 -0.9300
vn -0.1271 -0.0182 -0.9917
vn -0.0000 1.0000 -0.0002
usemtl None
s off
f 1/1/1 2/2/1 4/3/1 3/4/1
f 3/4/2 4/3/2 6/5/2 5/6/2
f 5/6/3 6/5/3 8/7/3 7/8/3
f 7/8/4 8/7/4 10/9/4 9/10/4
f 9/10/5 10/9/5 12/11/5 11/12/5
f 11/12/6 12/11/6 14/13/6 13/14/6
f 13/14/7 14/13/7 16/15/7 15/16/7
f 15/16/8 16/15/8 18/17/8 17/18/8
f 17/18/9 18/17/9 20/19/9 19/20/9
f 19/20/10 20/19/10 22/21/10 21/22/10
f 21/22/11 22/21/11 24/23/11 23/24/11
f 23/24/12 24/23/12 26/25/12 25/26/12
f 25/26/13 26/25/13 28/27/13 27/28/13
f 27/28/14 28/27/14 30/29/14 29/30/14
f 29/30/15 30/29/15 32/31/15 31/32/15
f 31/32/16 32/31/16 34/33/16 33/34/16
f 33/34/17 34/33/17 36/35/17 35/36/17
f 35/36/18 36/35/18 38/37/18 37/38/18
f 37/38/19 38/37/19 40/39/19 39/40/19
f 39/40/20 40/39/20 42/41/20 41/42/20
f 41/42/21 42/41/21 44/43/21 43/44/21
f 43/44/22 44/43/22 46/45/22 45/46/22
f 45/46/23 46/45/23 48/47/23 47/48/23
f 47/48/24 48/47/24 50/49/24 49/50/24
f 49/50/25 50/49/25 52/51/25 51/52/25
f 51/52/26 52/51/26 54/53/26 53/54/26
f 53/54/27 54/53/27 56/55/27 55/56/27
f 55/56/28 56/55/28 58/57/28 57/58/28
f 57/58/29 58/57/29 60/59/29 59/60/29
f 59/60/30 60/59/30 62/61/30 61/62/30
f 1/63/31 3/64/31 66/65/31
f 61/62/32 62/61/32 64/66/32 63/67/32
f 63/67/33 64/66/33 2/68/33 1/69/33
f 4/70/34 2/71/34 65/72/34
f 2/71/34 64/73/34 65/72/34
f 64/73/34 62/74/34 65/72/34
f 62/74/34 60/75/34 65/72/34
f 60/75/34 58/76/34 65/72/34
f 58/76/34 56/77/34 65/72/34
f 56/77/34 54/78/34 65/72/34
f 54/78/34 52/79/34 65/72/34
f 52/79/34 50/80/34 65/72/34
f 50/80/34 48/81/34 65/72/34
f 48/81/34 46/82/34 65/72/34
f 46/82/34 44/83/34 65/72/34
f 44/83/34 42/84/34 65/72/34
f 42/84/34 40/85/34 65/72/34
f 40/85/34 38/86/34 65/72/34
f 38/86/34 36/87/34 65/72/34
f 36/87/34 34/88/34 65/72/34
f 34/88/34 32/89/34 65/72/34
f 32/89/34 30/90/34 65/72/34
f 30/90/34 28/91/34 65/72/34
f 28/91/34 26/92/34 65/72/34
f 26/92/34 24/93/34 65/72/34
f 24/93/34 22/94/34 65/72/34
f 22/94/34 20/95/34 65/72/34
f 20/95/34 18/96/34 65/72/34
f 18/96/34 16/97/34 65/72/34
f 16/97/34 14/98/34 65/72/34
f 14/98/34 12/99/34 65/72/34
f 12/99/34 10/100/34 65/72/34
f 10/100/34 8/101/34 65/72/34
f 8/101/34 6/102/34 65/72/34
f 6/102/34 4/70/34 65/72/34
f 3/64/31 5/103/31 66/65/31
f 5/103/31 7/104/31 66/65/31
f 7/104/31 9/105/31 66/65/31
f 9/105/31 11/106/31 66/65/31
f 11/106/31 13/107/31 66/65/31
f 13/107/31 15/108/31 66/65/31
f 15/108/31 17/109/31 66/65/31
f 17/109/31 19/110/31 66/65/31
f 19/110/31 21/111/31 66/65/31
f 21/111/31 23/112/31 66/65/31
f 23/112/31 25/113/31 66/65/31
f 25/113/31 27/114/31 66/65/31
f 27/114/31 29/115/31 66/65/31
f 29/115/31 31/116/31 66/65/31
f 31/116/31 33/117/31 66/65/31
f 33/117/31 35/118/31 66/65/31
f 35/118/31 37/119/31 66/65/31
f 37/119/31 39/120/31 66/65/31
f 39/120/31 41/121/31 66/65/31
f 41/121/31 43/122/31 66/65/31
f 43/122/31 45/123/31 66/65/31
f 45/123/31 47/124/31 66/65/31
f 47/124/31 49/125/31 66/65/31
f 49/125/31 51/126/31 66/65/31
f 51/126/31 53/127/31 66/65/31
f 53/127/31 55/128/31 66/65/31
f 55/128/31 57/129/31 66/65/31
f 57/129/31 59/130/31 66/65/31
f 59/130/31 61/131/31 66/65/31
f 61/131/31 63/132/31 66/65/31
f 63/132/31 1/63/31 66/65/31
