# Blender v2.90.0 OBJ File: 'ZombieBase.blend'
# www.blender.org
mtllib ZombieBase.mtl
o Cube
v 0.585529 4.321321 1.047603
v 0.505711 1.296270 0.799088
v -0.521961 4.321321 1.047603
v -0.520455 1.296270 0.799088
v -0.660787 5.022942 0.579610
v -0.521961 3.796044 1.047603
v 0.585529 3.796044 1.047603
v -0.520455 1.296270 0.200912
v 0.505711 1.296270 0.200912
v -0.648957 3.016031 0.666611
v -0.498432 4.735792 0.247251
v 0.498432 4.735792 0.498432
v 0.648957 3.016031 0.827805
v -0.617022 1.853200 0.830325
v 0.617022 1.853200 0.830325
v 0.663507 4.674809 0.789036
v -0.808950 4.374583 0.475695
v 0.660787 5.022942 0.579610
v 0.454840 4.960668 0.366163
v -0.454840 4.877167 0.198845
v 0.645570 6.407611 0.461697
v -0.600517 6.332942 0.472734
v -0.109153 -0.037820 0.358722
v -0.109153 -0.037820 0.641278
v 0.234989 -0.037820 0.641278
v 0.234989 -0.037820 0.358722
v -0.224019 3.705501 2.970138
v -0.224019 4.046322 2.970138
v 0.224019 4.046322 2.970138
v 0.224019 3.705501 2.970138
v 0.569569 2.285978 0.765750
v -0.569569 2.285978 0.765750
v 0.421572 3.809680 1.511322
v -0.373337 3.809680 1.511322
v -0.373337 4.219516 1.511322
v 0.421572 4.219516 1.511322
v -0.120631 3.784148 3.425822
v -0.120631 3.967675 3.425822
v 0.120631 3.967675 3.425822
v 0.120631 3.784148 3.425822
v -0.660787 5.757340 0.579610
v 0.652592 5.763886 0.530162
v -0.373337 4.219516 1.511322
v -0.373337 4.219516 1.511322
v -0.373337 4.219516 1.511322
v 0.000000 4.918917 0.282431
v 0.000000 5.022942 0.579610
v -0.010794 6.426688 0.496347
v 0.006991 5.757340 0.626950
v 0.585529 4.321321 -1.047603
v 0.505711 1.296270 -0.799088
v -0.521961 4.321321 -1.047603
v -0.520455 1.296270 -0.799088
v -0.660787 5.022942 -0.579610
v -0.521961 3.796044 -1.047603
v 0.585529 3.796044 -1.047603
v -0.520455 1.296270 -0.200912
v 0.498432 4.735792 0.000000
v -0.498432 4.735792 0.000000
v 0.505711 1.296270 -0.200912
v 0.648957 3.016031 0.000000
v -0.648957 3.016031 0.000000
v -0.648957 3.016031 -0.666611
v -0.498432 4.735792 -0.247251
v 0.498432 4.735792 -0.498432
v 0.648957 3.016031 -0.827805
v -0.617022 1.853200 0.000000
v -0.617022 1.853200 -0.830325
v 0.617022 1.853200 -0.830325
v 0.617022 1.853200 0.000000
v 0.663507 4.674809 -0.789036
v -0.808950 4.374583 -0.475695
v 0.798873 4.585282 0.000000
v -0.808950 4.374583 0.000000
v 0.660787 5.022942 -0.579610
v 0.454840 4.960668 -0.366163
v -0.454840 4.877167 -0.198845
v 0.454840 4.960668 0.000000
v -0.454840 4.877167 0.000000
v 0.645570 6.407611 -0.461697
v -0.600517 6.332942 -0.472734
v 0.660787 6.491738 0.000000
v -0.660787 6.491738 0.000000
v -0.875183 5.022942 0.000000
v 0.660787 5.022942 0.000000
v -0.109153 -0.037820 -0.358722
v -0.109153 -0.037820 -0.641278
v 0.234989 -0.037820 -0.641278
v 0.234989 -0.037820 -0.358722
v -0.224019 3.705501 -2.970138
v -0.224019 4.046322 -2.970138
v 0.224019 4.046322 -2.970138
v 0.224019 3.705501 -2.970138
v 0.569569 2.285978 -0.765750
v -0.569569 2.285978 -0.765750
v -0.569569 2.285978 0.000000
v 0.569569 2.285978 0.000000
v 0.421572 3.809680 -1.511322
v -0.373337 3.809680 -1.511322
v -0.373337 4.219516 -1.511322
v 0.421572 4.219516 -1.511322
v -0.120631 3.784148 -3.425822
v -0.120631 3.967675 -3.425822
v 0.120631 3.967675 -3.425822
v 0.120631 3.784148 -3.425822
v -0.660787 5.757340 -0.579610
v 0.738008 5.757340 0.000000
v -0.739831 5.757340 0.000000
v 0.652592 5.763886 -0.530162
v -0.373337 4.219516 -1.511322
v -0.373337 4.219516 -1.511322
v -0.373337 4.219516 -1.511322
v 0.000000 4.918917 -0.282431
v 0.000000 5.022942 -0.579610
v -0.010794 6.426688 -0.496347
v 0.006991 5.757340 -0.626950
vt 0.590268 0.787500
vt 0.961448 0.762871
vt 0.757502 0.853731
vt 0.757833 0.854034
vt 0.101230 0.571779
vt 0.130827 0.575108
vt 0.124362 0.594477
vt 0.123228 0.594573
vt 0.081616 0.421747
vt 0.188351 0.315399
vt 0.299779 0.444889
vt 0.191697 0.505132
vt 0.320745 0.669127
vt 0.210098 0.636703
vt 0.288892 0.788085
vt 0.157844 0.752994
vt 0.667853 0.538502
vt 0.644504 0.452359
vt 0.743190 0.388020
vt 0.743190 0.665809
vt 0.528465 0.460330
vt 0.491856 0.401587
vt 0.527217 0.543556
vt 0.490659 0.673649
vt 0.119427 0.622211
vt 0.137222 0.608757
vt 0.166862 0.622813
vt 0.083129 0.716785
vt 0.149433 0.545593
vt 0.028986 0.494150
vt 0.885779 0.493844
vt 0.908955 0.514719
vt 0.890483 0.522843
vt 0.873567 0.506429
vt 0.854155 0.681069
vt 0.922454 0.657840
vt 0.961249 0.678807
vt 0.863193 0.717473
vt 0.918154 0.450520
vt 0.961249 0.479708
vt 0.844131 0.655041
vt 0.885737 0.639018
vt 0.618491 0.166367
vt 0.646132 0.108279
vt 0.677541 0.105544
vt 0.658904 0.170387
vt 0.578550 0.250699
vt 0.604203 0.233329
vt 0.659775 0.243918
vt 0.617414 0.308097
vt 0.891236 0.580197
vt 0.555734 0.768563
vt 0.533003 0.853451
vt 0.618300 0.063131
vt 0.644828 0.046777
vt 0.750310 0.174254
vt 0.749685 0.090411
vt 0.836654 0.082826
vt 0.842227 0.179384
vt 0.728642 0.339774
vt 0.740409 0.254691
vt 0.822203 0.266100
vt 0.844706 0.341767
vt 0.555734 0.217417
vt 0.434939 0.103205
vt 0.740976 0.022820
vt 0.844706 0.017267
vt 0.122969 0.596380
vt 0.124935 0.596238
vt 0.757946 0.853984
vt 0.757932 0.853967
vt 0.961448 0.936056
vt 0.598384 0.935911
vt 0.758127 0.854177
vt 0.758497 0.853570
vt 0.609563 0.505594
vt 0.609983 0.489169
vt 0.574509 0.489017
vt 0.579636 0.510088
vt 0.757991 0.853960
vt 0.757980 0.853977
vt 0.590268 0.787500
vt 0.757833 0.854034
vt 0.757502 0.853731
vt 0.961448 0.762871
vt 0.101230 0.571779
vt 0.123228 0.594573
vt 0.124362 0.594477
vt 0.130827 0.575108
vt 0.191697 0.505132
vt 0.299779 0.444889
vt 0.210098 0.636703
vt 0.320745 0.669127
vt 0.667853 0.538502
vt 0.743190 0.665809
vt 0.743190 0.388020
vt 0.644504 0.452359
vt 0.491856 0.401587
vt 0.528465 0.460330
vt 0.490659 0.673649
vt 0.527217 0.543556
vt 0.119427 0.622211
vt 0.166862 0.622813
vt 0.137222 0.608757
vt 0.149433 0.545593
vt 0.890483 0.522843
vt 0.908955 0.514719
vt 0.961249 0.678807
vt 0.922454 0.657840
vt 0.961249 0.479708
vt 0.885737 0.639018
vt 0.618491 0.166367
vt 0.658904 0.170387
vt 0.677541 0.105544
vt 0.646132 0.108279
vt 0.659775 0.243918
vt 0.604203 0.233329
vt 0.891236 0.580197
vt 0.555734 0.768563
vt 0.750310 0.174254
vt 0.842227 0.179384
vt 0.836654 0.082826
vt 0.749685 0.090411
vt 0.822203 0.266100
vt 0.740409 0.254691
vt 0.555734 0.217417
vt 0.122969 0.596380
vt 0.124935 0.596238
vt 0.757932 0.853967
vt 0.757946 0.853984
vt 0.961448 0.936056
vt 0.758497 0.853570
vt 0.758127 0.854177
vt 0.598384 0.935911
vt 0.609983 0.489169
vt 0.609563 0.505594
vt 0.579636 0.510088
vt 0.574509 0.489017
vt 0.757980 0.853977
vt 0.757991 0.853960
vn 0.0000 -0.9975 -0.0712
vn 0.9800 -0.1989 0.0000
vn 0.9941 -0.1081 0.0000
vn -0.0660 0.0253 0.9975
vn -0.9941 -0.1081 0.0000
vn -0.9068 -0.0344 0.4202
vn -0.1579 0.8705 0.4661
vn 0.9587 -0.0013 0.2846
vn -0.0625 -0.3565 0.9322
vn -0.9853 -0.1708 0.0000
vn 0.0000 -0.0560 0.9984
vn 0.9806 -0.1960 0.0000
vn 0.0000 -0.3393 -0.9407
vn -0.9556 0.2947 -0.0000
vn 0.4231 0.9059 -0.0185
vn -0.7583 0.6519 0.0000
vn 0.9817 0.1903 0.0000
vn 0.0127 -0.9523 0.3050
vn -0.3685 -0.9241 0.1015
vn -0.2007 0.3722 0.9062
vn -0.9931 -0.1170 0.0000
vn 0.2894 -0.9572 -0.0000
vn 0.1007 0.1510 0.9834
vn -0.9822 0.1165 0.1476
vn 0.9951 -0.0497 0.0861
vn 0.9922 0.0659 0.1058
vn 0.0000 -1.0000 0.0000
vn -0.9556 -0.2946 0.0000
vn 0.0000 -0.1175 -0.9931
vn 0.0000 -0.1175 0.9931
vn 0.0000 -0.9854 0.1701
vn 0.0000 0.9930 0.1179
vn 0.9910 0.0000 0.1342
vn -0.9948 0.0000 0.1018
vn -0.9940 0.1090 0.0000
vn 0.0000 0.1476 0.9891
vn 0.9940 0.1090 0.0000
vn -0.9523 0.0000 0.3052
vn 0.9428 0.0000 0.3333
vn 0.0000 0.9767 0.2144
vn 0.0000 -0.9996 0.0294
vn 0.0000 0.0000 1.0000
vn 0.0000 0.9854 0.1701
vn 0.9752 0.0000 0.2213
vn -0.9752 0.0000 0.2213
vn 0.9961 -0.0440 0.0769
vn -0.9656 0.0890 0.2444
vn 0.0739 0.0015 0.9973
vn -0.1610 0.9292 0.3327
vn -0.0356 -0.0320 0.9989
vn -0.0694 0.1892 0.9795
vn -0.2014 0.4673 0.8609
vn 0.0090 -0.9374 0.3481
vn -0.2204 0.4318 0.8746
vn -0.2563 0.9064 0.3358
vn -0.1886 0.6356 0.7486
vn 0.0381 0.9829 0.1803
vn 0.0000 0.9915 0.1299
vn 0.0000 -0.9975 0.0712
vn -0.0660 0.0253 -0.9975
vn -0.9068 -0.0344 -0.4202
vn -0.1579 0.8705 -0.4661
vn 0.9587 -0.0013 -0.2846
vn -0.0625 -0.3565 -0.9322
vn 0.0000 -0.0560 -0.9984
vn 0.0000 -0.3393 0.9407
vn 0.4231 0.9059 0.0185
vn 0.0127 -0.9523 -0.3050
vn -0.3685 -0.9241 -0.1015
vn -0.2007 0.3722 -0.9062
vn 0.1007 0.1510 -0.9834
vn -0.9822 0.1165 -0.1476
vn 0.9951 -0.0497 -0.0861
vn 0.9922 0.0659 -0.1058
vn 0.0000 -0.9854 -0.1701
vn 0.0000 0.9930 -0.1179
vn 0.9910 0.0000 -0.1342
vn -0.9948 0.0000 -0.1018
vn 0.0000 0.1476 -0.9891
vn -0.9523 0.0000 -0.3052
vn 0.9428 0.0000 -0.3333
vn 0.0000 0.9767 -0.2144
vn 0.0000 -0.9996 -0.0294
vn 0.0000 0.0000 -1.0000
vn 0.0000 0.9854 -0.1701
vn 0.9752 0.0000 -0.2213
vn -0.9752 0.0000 -0.2213
vn 0.9961 -0.0440 -0.0769
vn -0.9656 0.0890 -0.2444
vn 0.0739 0.0015 -0.9973
vn -0.1610 0.9292 -0.3327
vn -0.0356 -0.0320 -0.9989
vn -0.0694 0.1892 -0.9795
vn -0.2014 0.4673 -0.8609
vn 0.0090 -0.9374 -0.3481
vn -0.2204 0.4318 -0.8746
vn -0.2563 0.9064 -0.3358
vn -0.1886 0.6356 -0.7486
vn 0.0381 0.9829 -0.1803
vn 0.0000 0.9915 -0.1299
usemtl Material
s off
f 34/1/1 33/2/1 30/3/1 27/4/1
f 9/5/2 2/6/2 25/7/2 26/8/2
f 97/9/3 61/10/3 13/11/3 31/12/3
f 31/12/4 13/11/4 10/13/4 32/14/4
f 32/14/5 10/13/5 62/15/5 96/16/5
f 6/17/6 3/18/6 17/19/6 10/20/6
f 3/18/7 1/21/7 16/22/7 17/19/7
f 1/21/8 7/23/8 13/24/8 16/22/8
f 7/23/9 6/17/9 10/20/9 13/24/9
f 8/25/10 4/26/10 14/27/10 67/28/10
f 4/26/11 2/6/11 15/29/11 14/27/11
f 2/6/12 9/5/12 70/30/12 15/29/12
f 9/5/13 8/25/13 67/28/13 70/30/13
f 59/31/14 11/32/14 20/33/14 79/34/14
f 58/35/15 12/36/15 16/37/15 73/38/15
f 11/32/16 59/31/16 74/39/16 17/40/16
f 12/36/17 58/35/17 78/41/17 19/42/17
f 46/43/18 19/44/18 18/45/18 47/46/18
f 79/47/19 20/48/19 5/49/19 84/50/19
f 20/33/20 11/32/20 46/51/20
f 10/13/21 17/52/21 74/53/21 62/15/21
f 19/44/22 78/54/22 85/55/22 18/45/22
f 49/56/23 42/57/23 21/58/23 48/59/23
f 108/60/24 41/61/24 22/62/24 83/63/24
f 16/64/25 13/11/25 61/10/25 73/65/25
f 42/57/26 107/66/26 82/67/26 21/58/26
f 23/68/27 26/8/27 25/7/27 24/69/27
f 4/26/28 8/25/28 23/68/28 24/69/28
f 8/25/29 9/5/29 26/8/29 23/68/29
f 2/6/30 4/26/30 24/69/30 25/7/30
f 27/4/31 30/3/31 40/70/31 37/71/31
f 36/72/32 35/73/32 28/74/32 29/75/32
f 33/2/33 36/72/33 29/75/33 30/3/33
f 35/73/34 34/1/34 27/4/34 28/74/34
f 14/27/35 32/14/35 96/16/35 67/28/35
f 15/29/36 31/12/36 32/14/36 14/27/36
f 70/30/37 97/9/37 31/12/37 15/29/37
f 3/18/38 6/17/38 34/76/38 35/77/38
f 7/23/39 1/21/39 36/78/39 33/79/39
f 1/21/40 3/18/40 35/77/40 36/78/40
f 6/17/41 7/23/41 33/79/41 34/76/41
f 40/70/42 39/80/42 38/81/42 37/71/42
f 29/75/43 28/74/43 38/81/43 39/80/43
f 30/3/44 29/75/44 39/80/44 40/70/44
f 28/74/45 27/4/45 37/71/45 38/81/45
f 18/45/46 85/55/46 107/66/46 42/57/46
f 84/50/47 5/49/47 41/61/47 108/60/47
f 47/46/48 18/45/48 42/57/48 49/56/48
f 22/62/49 48/59/49 83/63/49
f 5/49/50 47/46/50 49/56/50 41/61/50
f 41/61/51 49/56/51 48/59/51 22/62/51
f 12/36/52 19/42/52 46/51/52
f 20/48/53 46/43/53 47/46/53 5/49/53
f 46/51/54 11/32/54 12/36/54
f 12/36/55 17/40/55 16/37/55
f 17/40/56 12/36/56 11/32/56
f 21/58/57 82/67/57 48/59/57
f 48/59/58 82/67/58 83/63/58
f 99/82/59 90/83/59 93/84/59 98/85/59
f 60/86/2 89/87/2 88/88/2 51/89/2
f 97/9/3 94/90/3 66/91/3 61/10/3
f 94/90/60 95/92/60 63/93/60 66/91/60
f 95/92/5 96/16/5 62/15/5 63/93/5
f 55/94/61 63/95/61 72/96/61 52/97/61
f 52/97/62 72/96/62 71/98/62 50/99/62
f 50/99/63 71/98/63 66/100/63 56/101/63
f 56/101/64 66/100/64 63/95/64 55/94/64
f 57/102/10 67/28/10 68/103/10 53/104/10
f 53/104/65 68/103/65 69/105/65 51/89/65
f 51/89/12 69/105/12 70/30/12 60/86/12
f 60/86/66 70/30/66 67/28/66 57/102/66
f 59/31/14 79/34/14 77/106/14 64/107/14
f 58/35/67 73/38/67 71/108/67 65/109/67
f 64/107/16 72/110/16 74/39/16 59/31/16
f 65/109/17 76/111/17 78/41/17 58/35/17
f 113/112/68 114/113/68 75/114/68 76/115/68
f 79/47/69 84/50/69 54/116/69 77/117/69
f 77/106/70 113/118/70 64/107/70
f 63/93/21 62/15/21 74/53/21 72/119/21
f 76/115/22 75/114/22 85/55/22 78/54/22
f 116/120/71 115/121/71 80/122/71 109/123/71
f 108/60/72 83/63/72 81/124/72 106/125/72
f 71/126/73 73/65/73 61/10/73 66/91/73
f 109/123/74 80/122/74 82/67/74 107/66/74
f 86/127/27 87/128/27 88/88/27 89/87/27
f 53/104/28 87/128/28 86/127/28 57/102/28
f 57/102/30 86/127/30 89/87/30 60/86/30
f 51/89/29 88/88/29 87/128/29 53/104/29
f 90/83/75 102/129/75 105/130/75 93/84/75
f 101/131/76 92/132/76 91/133/76 100/134/76
f 98/85/77 93/84/77 92/132/77 101/131/77
f 100/134/78 91/133/78 90/83/78 99/82/78
f 68/103/35 67/28/35 96/16/35 95/92/35
f 69/105/79 68/103/79 95/92/79 94/90/79
f 70/30/37 69/105/37 94/90/37 97/9/37
f 52/97/80 100/135/80 99/136/80 55/94/80
f 56/101/81 98/137/81 101/138/81 50/99/81
f 50/99/82 101/138/82 100/135/82 52/97/82
f 55/94/83 99/136/83 98/137/83 56/101/83
f 105/130/84 102/129/84 103/139/84 104/140/84
f 92/132/85 104/140/85 103/139/85 91/133/85
f 93/84/86 105/130/86 104/140/86 92/132/86
f 91/133/87 103/139/87 102/129/87 90/83/87
f 75/114/88 109/123/88 107/66/88 85/55/88
f 84/50/89 108/60/89 106/125/89 54/116/89
f 114/113/90 116/120/90 109/123/90 75/114/90
f 81/124/91 83/63/91 115/121/91
f 54/116/92 106/125/92 116/120/92 114/113/92
f 106/125/93 81/124/93 115/121/93 116/120/93
f 65/109/94 113/118/94 76/111/94
f 77/117/95 54/116/95 114/113/95 113/112/95
f 113/118/96 65/109/96 64/107/96
f 65/109/97 71/108/97 72/110/97
f 72/110/98 64/107/98 65/109/98
f 80/122/99 115/121/99 82/67/99
f 115/121/100 83/63/100 82/67/100
l 43 35
l 44 43
l 45 44
l 110 100
l 111 110
l 112 111
